<?xml version="1.0" standalone="no"?>
<!DOCTYPE svg PUBLIC "-//W3C//DTD SVG 20010904//EN"
 "http://www.w3.org/TR/2001/REC-SVG-20010904/DTD/svg10.dtd">
<svg version="1.0" xmlns="http://www.w3.org/2000/svg"
 width="512.000000pt" height="512.000000pt" viewBox="0 0 512.000000 512.000000"
 preserveAspectRatio="xMidYMid meet">

<g transform="translate(0.000000,512.000000) scale(0.100000,-0.100000)"
fill="#000000" stroke="none">
<path d="M2345 5110 c-502 -46 -961 -227 -1365 -538 -126 -97 -363 -340 -461
-472 -121 -163 -171 -244 -254 -415 -125 -256 -191 -466 -236 -755 -33 -207
-33 -533 0 -740 45 -289 111 -499 236 -755 129 -265 269 -460 485 -676 203
-204 383 -338 614 -460 409 -215 830 -312 1286 -296 613 22 1156 241 1624 657
440 390 723 920 823 1542 22 134 24 551 4 683 -72 481 -241 881 -529 1255 -97
126 -340 363 -472 461 -163 121 -244 171 -415 254 -255 125 -470 192 -750 235
-157 24 -445 34 -590 20z m-275 -1295 l0 -535 490 0 490 0 0 535 0 535 115 0
115 0 0 -535 0 -535 535 0 535 0 0 -115 0 -115 -535 0 -535 0 0 -490 0 -490
535 0 535 0 0 -115 0 -115 -535 0 -535 0 0 -535 0 -535 -115 0 -115 0 0 535 0
535 -490 0 -490 0 0 -535 0 -535 -115 0 -115 0 0 535 0 535 -535 0 -535 0 0
115 0 115 535 0 535 0 0 490 0 490 -535 0 -535 0 0 115 0 115 535 0 535 0 0
535 0 535 115 0 115 0 0 -535z m-613 277 l153 153 75 -75 75 -75 -152 -152
-153 -153 153 -153 152 -152 -75 -75 -75 -75 -153 153 -152 152 -152 -152
-153 -153 -70 70 c-38 38 -70 74 -70 80 0 5 66 76 147 157 l148 148 -150 150
-150 150 75 75 75 75 150 -150 150 -150 152 152z m2506 -1234 l152 152 73 -72
72 -73 -152 -152 -153 -153 153 -153 152 -152 -72 -73 -73 -72 -152 152 -153
153 -153 -153 -152 -152 -73 72 -72 73 152 152 153 153 -153 153 -152 152 72
73 73 72 152 -152 153 -153 153 153z m-2808 -1278 l150 -150 152 152 153 153
75 -75 75 -75 -152 -152 -153 -153 148 -148 c81 -81 147 -152 147 -157 0 -6
-32 -42 -70 -80 l-70 -70 -153 153 -152 152 -152 -152 -153 -153 -70 70 c-38
38 -70 74 -70 80 0 5 66 76 147 157 l148 148 -148 148 c-81 81 -147 152 -147
157 0 10 130 145 140 145 3 0 73 -68 155 -150z"/>
<path d="M2070 2560 l0 -490 488 2 487 3 0 485 0 485 -487 3 -488 2 0 -490z
m480 331 l0 -98 -38 -6 c-140 -23 -224 -197 -157 -327 30 -58 117 -120 170
-120 l25 0 0 -100 0 -100 -32 0 c-126 1 -280 108 -341 237 -60 129 -59 249 1
377 61 127 211 233 335 235 l37 1 0 -99z"/>
</g>
</svg>
