<?xml version="1.0" standalone="no"?>
<!DOCTYPE svg PUBLIC "-//W3C//DTD SVG 20010904//EN"
 "http://www.w3.org/TR/2001/REC-SVG-20010904/DTD/svg10.dtd">
<svg version="1.0" xmlns="http://www.w3.org/2000/svg"
 width="348.000000pt" height="348.000000pt" viewBox="0 0 348.000000 348.000000"
 preserveAspectRatio="xMidYMid meet">

<g transform="translate(0.000000,348.000000) scale(0.100000,-0.100000)"
fill="#000000" stroke="none">
<path d="M1099 3439 l-52 -42 7 -218 c4 -120 4 -354 0 -520 l-7 -301 -401 3
c-444 3 -445 3 -583 -63 l-68 -33 310 -6 c171 -3 408 -7 529 -8 l219 -1 -7
-127 c-3 -71 -8 -294 -11 -498 -3 -203 -8 -381 -11 -395 l-4 -25 -374 3 c-321
3 -383 1 -437 -13 -77 -20 -209 -75 -209 -86 0 -5 230 -9 511 -9 l512 0 -7
-122 c-3 -68 -11 -269 -16 -448 -5 -179 -13 -371 -16 -427 -7 -116 -7 -116 61
-84 78 36 76 27 86 338 5 153 12 381 15 507 l6 229 292 -6 c160 -4 414 -10
565 -14 l274 -6 -7 -236 c-3 -130 -11 -368 -18 -528 -6 -161 -8 -296 -5 -300
12 -11 99 31 118 57 15 22 19 63 29 305 6 154 10 371 11 482 0 111 3 204 7
207 4 2 68 1 142 -4 74 -5 185 -11 245 -14 61 -4 167 -11 236 -17 l126 -12
104 40 c57 23 128 48 157 58 29 9 50 20 47 24 -4 3 -82 9 -173 12 -92 3 -328
12 -525 20 l-359 13 6 395 c4 218 9 451 12 519 l6 123 142 -6 c77 -4 222 -13
321 -21 258 -20 252 -21 410 36 77 28 147 54 155 57 24 10 -130 20 -490 32
-184 6 -381 14 -438 17 l-103 6 6 574 c6 477 5 574 -7 574 -15 -1 -42 -16 -86
-49 l-32 -25 0 -539 0 -540 -92 7 c-51 3 -246 8 -433 11 -187 3 -403 8 -481
11 l-140 6 4 559 c3 493 2 559 -11 559 -8 0 -39 -19 -68 -41z m701 -1204 c151
-3 328 -8 394 -12 l119 -6 -8 -396 c-4 -218 -10 -452 -14 -521 l-6 -125 -125
3 c-69 2 -253 7 -410 12 -157 5 -356 10 -443 10 l-158 0 6 118 c3 64 8 300 11
525 l6 407 177 -5 c97 -3 300 -7 451 -10z"/>
<path d="M1620 2149 c-203 -40 -340 -257 -301 -478 33 -185 156 -329 331 -388
204 -69 425 45 490 254 53 172 0 365 -136 492 -71 67 -142 104 -228 120 -68
12 -92 12 -156 0z m237 -114 c64 -19 143 -91 175 -160 18 -40 23 -67 23 -140
0 -80 -3 -97 -31 -155 -37 -78 -99 -141 -174 -178 -47 -23 -68 -27 -140 -27
-69 0 -93 5 -127 23 -126 66 -195 217 -163 353 51 217 243 342 437 284z"/>
<path d="M353 3350 c-107 -38 -175 -101 -227 -210 -29 -61 -31 -72 -31 -180 1
-103 4 -122 28 -181 36 -86 107 -172 185 -226 238 -162 538 -57 614 215 31
113 19 217 -38 338 -94 198 -341 312 -531 244z m292 -107 c68 -22 146 -101
169 -171 33 -98 25 -207 -21 -297 -28 -53 -122 -141 -180 -168 -66 -30 -179
-30 -244 0 -60 27 -125 92 -152 152 -17 36 -22 65 -22 136 0 80 3 97 31 155
51 109 148 188 255 210 51 10 94 5 164 -17z"/>
<path d="M2085 3249 c-47 -7 -65 -15 -84 -36 -13 -16 -62 -68 -108 -116 l-83
-88 -78 83 c-44 46 -93 100 -111 121 -18 20 -42 37 -52 37 -24 0 -149 -50
-149 -59 0 -4 14 -20 31 -37 17 -16 80 -82 141 -146 l110 -118 -89 -102 c-104
-120 -193 -232 -193 -243 0 -10 158 3 180 15 10 5 58 57 106 115 l89 106 20
-24 c11 -13 55 -67 99 -120 43 -54 85 -97 94 -97 33 0 134 34 139 47 6 15 -15
45 -144 200 -51 62 -93 116 -93 120 0 4 28 40 63 79 105 120 227 264 227 269
0 7 -42 4 -115 -6z"/>
<path d="M3240 3250 c-54 -8 -57 -11 -167 -124 l-111 -115 -116 122 -116 121
-69 -22 c-90 -29 -101 -42 -61 -75 38 -33 250 -260 250 -268 0 -4 -26 -36 -58
-70 -66 -74 -222 -265 -222 -273 0 -8 76 -6 134 3 53 9 64 19 183 158 l62 72
48 -58 c26 -32 71 -86 98 -119 28 -34 57 -62 65 -62 29 0 124 29 136 42 11 11
1 29 -54 99 -37 47 -93 115 -125 152 -41 46 -56 70 -50 80 4 8 69 85 143 171
74 87 137 161 138 167 4 10 -29 10 -108 -1z"/>
<path d="M3233 2028 c-50 -9 -58 -15 -161 -124 l-109 -116 -59 64 c-32 34 -84
90 -116 122 l-56 60 -59 -18 c-32 -10 -69 -25 -82 -33 l-24 -15 104 -107 c58
-58 122 -125 143 -148 l39 -42 -99 -117 c-118 -139 -184 -221 -184 -230 0 -5
114 3 165 12 20 4 44 27 148 147 32 37 62 67 67 67 4 0 45 -46 90 -102 46 -57
89 -109 95 -116 10 -11 23 -12 71 -2 33 6 69 18 82 26 l23 15 -23 32 c-12 18
-69 88 -126 155 -57 68 -102 127 -100 131 2 3 66 80 143 170 77 89 142 167
143 172 4 11 -45 10 -115 -3z"/>
<path d="M1605 951 c-112 -28 -226 -126 -265 -228 -39 -103 -46 -171 -27 -260
23 -108 67 -188 140 -261 75 -73 159 -117 254 -134 60 -10 80 -9 139 5 129 32
216 103 270 222 39 84 45 224 15 323 -70 230 -313 384 -526 333z m281 -129
c23 -11 61 -43 86 -71 146 -162 78 -446 -131 -548 -47 -23 -69 -28 -136 -28
-67 0 -88 5 -130 27 -66 35 -108 80 -140 151 -24 52 -27 68 -23 145 7 166 90
280 246 339 54 20 176 12 228 -15z"/>
<path d="M2788 941 c-74 -24 -119 -53 -167 -108 -52 -58 -78 -113 -97 -203
-45 -217 100 -467 312 -540 158 -55 301 -23 413 91 62 63 95 132 110 224 51
333 -268 633 -571 536z m310 -120 c171 -88 217 -317 99 -493 -140 -210 -435
-207 -544 7 -31 60 -42 168 -23 244 26 108 131 224 233 257 62 20 181 13 235
-15z"/>
<path d="M230 924 c-36 -14 -69 -29 -74 -34 -5 -5 47 -68 128 -154 75 -80 136
-148 136 -152 0 -3 -44 -58 -97 -121 -98 -114 -183 -222 -183 -231 0 -5 134 7
168 15 12 3 65 54 118 114 l95 109 27 -32 c15 -18 37 -44 48 -58 12 -14 45
-53 73 -87 29 -35 55 -63 59 -63 25 0 129 33 141 45 15 15 6 29 -144 208 -49
60 -90 112 -90 117 0 4 16 25 35 47 82 89 251 295 247 300 -3 2 -38 1 -79 -2
l-73 -7 -116 -118 -115 -118 -120 124 -119 124 -65 -26z"/>
</g>
</svg>
